<svg width="496" height="496" viewBox="0 0 496 496" fill="none" xmlns="http://www.w3.org/2000/svg">
<rect width="496" height="496" rx="60" fill="#D9D9D9"/>
<rect width="496" height="496" rx="60" fill="url(#paint0_linear_2600_31254)"/>
<rect x="24" y="24" width="448" height="448" rx="48" stroke="white" stroke-width="8"/>
<path d="M184.214 315.335C199.528 330.989 219.678 340.731 241.23 342.9C262.783 345.068 284.404 339.53 302.409 327.229C320.415 314.928 333.691 296.625 339.974 275.44C346.257 254.254 345.159 231.497 336.867 211.046C328.575 190.595 313.603 173.716 294.5 163.286C275.398 152.855 253.349 149.519 232.11 153.845C210.871 158.171 191.756 169.891 178.024 187.01C164.291 204.128 156.791 225.584 156.8 247.722V268.941M156.8 268.941L136 247.679M156.8 268.941L177.6 247.679M240 205.155V258.31H292" stroke="white" stroke-width="24" stroke-linecap="round" stroke-linejoin="round"/>
<defs>
<linearGradient id="paint0_linear_2600_31254" x1="0" y1="248" x2="496" y2="248" gradientUnits="userSpaceOnUse">
<stop stop-color="#F89A47"/>
<stop offset="0.5" stop-color="#F15F3E"/>
<stop offset="1" stop-color="#EC2073"/>
</linearGradient>
</defs>
</svg>
