<svg width="496" height="496" viewBox="0 0 496 496" fill="none" xmlns="http://www.w3.org/2000/svg">
<rect width="496" height="496" rx="60" fill="#D9D9D9"/>
<rect width="496" height="496" rx="60" fill="url(#paint0_linear_2600_31321)"/>
<rect x="24" y="24" width="448" height="448" rx="48" stroke="white" stroke-width="8"/>
<path d="M281.75 173.75C281.75 182.701 278.194 191.286 271.865 197.615C265.536 203.944 256.951 207.5 248 207.5C239.049 207.5 230.464 203.944 224.135 197.615C217.806 191.286 214.25 182.701 214.25 173.75C214.25 164.799 217.806 156.214 224.135 149.885C230.464 143.556 239.049 140 248 140C256.951 140 265.536 143.556 271.865 149.885C278.194 156.214 281.75 164.799 281.75 173.75ZM349.25 180.5C349.25 187.661 346.405 194.528 341.342 199.592C336.278 204.655 329.411 207.5 322.25 207.5C315.089 207.5 308.222 204.655 303.158 199.592C298.095 194.528 295.25 187.661 295.25 180.5C295.25 173.339 298.095 166.472 303.158 161.408C308.222 156.345 315.089 153.5 322.25 153.5C329.411 153.5 336.278 156.345 341.342 161.408C346.405 166.472 349.25 173.339 349.25 180.5ZM173.75 207.5C180.911 207.5 187.778 204.655 192.842 199.592C197.905 194.528 200.75 187.661 200.75 180.5C200.75 173.339 197.905 166.472 192.842 161.408C187.778 156.345 180.911 153.5 173.75 153.5C166.589 153.5 159.722 156.345 154.658 161.408C149.595 166.472 146.75 173.339 146.75 180.5C146.75 187.661 149.595 194.528 154.658 199.592C159.722 204.655 166.589 207.5 173.75 207.5ZM194 237.875C194 228.56 201.56 221 210.875 221H285.125C294.44 221 302 228.56 302 237.875V302C302 316.322 296.311 330.057 286.184 340.184C276.057 350.311 262.322 356 248 356C233.678 356 219.943 350.311 209.816 340.184C199.689 330.057 194 316.322 194 302V237.875ZM180.5 237.875C180.5 231.625 182.39 225.833 185.617 221H156.875C147.56 221 140 228.56 140 237.875V288.5C139.999 294.28 141.236 299.992 143.626 305.255C146.016 310.517 149.505 315.206 153.858 319.008C158.212 322.81 163.328 325.636 168.864 327.297C174.4 328.957 180.227 329.414 185.954 328.635C182.348 320.219 180.493 311.157 180.5 302V237.875ZM315.5 302C315.5 311.45 313.556 320.468 310.046 328.635C311.828 328.878 313.646 329 315.5 329C326.241 329 336.543 324.733 344.138 317.138C351.733 309.543 356 299.241 356 288.5V237.875C356 228.56 348.44 221 339.125 221H310.384C313.624 225.833 315.5 231.625 315.5 237.875V302Z" fill="white"/>
<defs>
<linearGradient id="paint0_linear_2600_31321" x1="0" y1="248" x2="496" y2="248" gradientUnits="userSpaceOnUse">
<stop stop-color="#F89A47"/>
<stop offset="0.5" stop-color="#F15F3E"/>
<stop offset="1" stop-color="#EC2073"/>
</linearGradient>
</defs>
</svg>
