<svg width="496" height="496" viewBox="0 0 496 496" fill="none" xmlns="http://www.w3.org/2000/svg">
<rect width="496" height="496" rx="60" fill="#D9D9D9"/>
<rect width="496" height="496" rx="60" fill="url(#paint0_linear_2600_31315)"/>
<rect x="24" y="24" width="448" height="448" rx="48" stroke="white" stroke-width="8"/>
<path d="M214.417 360C206.494 360 199.392 357.927 193.109 353.782C186.827 349.636 181.96 343.936 178.508 336.682C175.753 340.309 172.267 343.118 168.051 345.107C163.835 347.097 159.485 348.089 155 348.082C146.217 348.082 138.856 345.059 132.918 339.014C126.979 332.968 124.007 325.627 124 316.991C124 309.564 126.411 302.872 131.233 296.917C136.056 290.961 142.169 287.548 149.575 286.677C147.164 283.223 145.314 279.554 144.026 275.671C142.738 271.788 142.09 267.684 142.083 263.359C142.083 256.45 143.85 249.973 147.384 243.927C150.918 237.882 155.868 232.959 162.233 229.159C163.094 232.268 164.259 235.595 165.726 239.139C167.193 242.684 168.871 245.748 170.758 248.332C168.347 250.232 166.453 252.522 165.075 255.203C163.697 257.884 163.008 260.689 163.008 263.618C163.008 273.291 166.969 279.25 174.892 281.495C182.814 283.741 190.306 285.555 197.367 286.936L202.275 295.227C200.381 300.755 198.744 305.463 197.367 309.353C195.989 313.243 195.3 316.739 195.3 319.841C195.3 325.023 197.153 329.559 200.859 333.448C204.566 337.338 209.085 339.28 214.417 339.273C220.961 339.273 226.386 336.336 230.692 330.464C234.997 324.591 238.528 317.682 241.283 309.736C244.039 301.791 246.15 293.759 247.618 285.641C249.085 277.523 250.246 271.305 251.1 266.986L271.25 272.427C269.7 280.2 267.806 289.095 265.567 299.114C263.328 309.132 260.183 318.677 256.132 327.748C252.082 336.82 246.743 344.461 240.116 350.673C233.489 356.884 224.922 359.993 214.417 360ZM228.367 286.418C220.444 279.336 213.252 272.728 206.791 266.593C200.329 260.457 194.776 254.498 190.133 248.715C185.49 242.932 181.915 237.146 179.407 231.356C176.9 225.566 175.653 219.566 175.667 213.355C175.667 202.127 179.5 192.669 187.168 184.979C194.835 177.289 204.262 173.451 215.45 173.465C216.139 173.465 216.742 173.51 217.258 173.6C217.775 173.689 218.378 173.731 219.067 173.724C218.378 171.997 217.861 170.269 217.517 168.542C217.172 166.815 217 164.998 217 163.091C217 154.455 220.014 147.114 226.042 141.068C232.069 135.023 239.389 132 248 132C256.611 132 263.931 135.023 269.958 141.068C275.986 147.114 279 154.455 279 163.091C279 164.991 278.828 166.763 278.483 168.407C278.139 170.052 277.622 171.734 276.933 173.455H280.55C290.883 173.455 299.667 176.781 306.9 183.435C314.133 190.088 318.439 198.334 319.817 208.173C316.717 207.655 313.231 207.395 309.359 207.395C305.488 207.395 301.912 207.568 298.633 207.914C297.428 203.941 295.23 200.659 292.041 198.068C288.851 195.477 285.021 194.182 280.55 194.182C274.522 194.182 269.831 195.954 266.476 199.498C263.121 203.043 258.512 208.18 252.65 214.909H243.092C237.064 207.827 232.373 202.601 229.018 199.229C225.663 195.857 221.14 194.178 215.45 194.192C209.939 194.192 205.375 196.006 201.758 199.633C198.142 203.26 196.333 207.834 196.333 213.355C196.333 217.327 197.453 221.431 199.692 225.667C201.931 229.902 205.072 234.393 209.116 239.139C213.159 243.886 218.068 248.936 223.841 254.291C229.614 259.645 236.031 265.432 243.092 271.65L228.367 286.418ZM281.325 360C277.536 360 273.789 359.482 270.082 358.445C266.376 357.409 262.804 355.768 259.367 353.523C261.261 351.105 263.156 348.255 265.05 344.973C266.944 341.691 268.667 338.668 270.217 335.905C272.111 337.114 274.006 337.977 275.9 338.495C277.794 339.014 279.689 339.273 281.583 339.273C287.094 339.273 291.703 337.331 295.409 333.448C299.116 329.565 300.965 324.943 300.958 319.582C300.958 316.3 300.269 312.759 298.892 308.959C297.514 305.159 295.878 300.495 293.983 294.968L298.892 286.677C306.125 285.295 313.661 283.482 321.501 281.236C329.341 278.991 333.257 273.032 333.25 263.359C333.25 256.45 330.711 251.441 325.634 248.332C320.557 245.223 315.001 243.668 308.967 243.668C301.733 243.668 293.294 245.05 283.65 247.814C274.006 250.577 262.725 254.118 249.808 258.436L244.383 238.227C257.817 233.909 269.786 230.282 280.292 227.345C290.797 224.409 300.442 222.941 309.225 222.941C321.108 222.941 331.528 226.482 340.483 233.564C349.439 240.645 353.917 250.577 353.917 263.359C353.917 267.677 353.273 271.781 351.984 275.671C350.696 279.561 348.843 283.23 346.425 286.677C353.831 287.541 359.944 290.954 364.767 296.917C369.589 302.879 372 309.571 372 316.991C372 325.627 369.031 332.968 363.093 339.014C357.154 345.059 349.79 348.082 341 348.082C336.522 348.082 332.172 347.09 327.949 345.107C323.726 343.125 320.24 340.316 317.492 336.682C314.047 343.936 309.184 349.636 302.901 353.782C296.618 357.927 289.426 360 281.325 360Z" fill="white"/>
<defs>
<linearGradient id="paint0_linear_2600_31315" x1="0" y1="248" x2="496" y2="248" gradientUnits="userSpaceOnUse">
<stop stop-color="#F89A47"/>
<stop offset="0.5" stop-color="#F15F3E"/>
<stop offset="1" stop-color="#EC2073"/>
</linearGradient>
</defs>
</svg>
