<svg width="496" height="496" viewBox="0 0 496 496" fill="none" xmlns="http://www.w3.org/2000/svg">
<rect width="496" height="496" rx="60" fill="#D9D9D9"/>
<rect width="496" height="496" rx="60" fill="url(#paint0_linear_2600_31351)"/>
<rect x="24" y="24" width="448" height="448" rx="48" stroke="white" stroke-width="8"/>
<path fill-rule="evenodd" clip-rule="evenodd" d="M269.714 172.221H159.719C144.43 172.221 132 184.626 132 199.884V316.337C132 331.595 144.43 344 159.719 344H326.033C341.322 344 353.752 331.595 353.752 316.337V200.212C351.572 203.76 350.026 208.421 349.067 211.351V211.489C341.259 233.124 314.711 231.563 306.903 211.489C306.866 211.372 306.829 211.255 306.792 211.137C305.268 206.335 303.698 201.39 297.533 195.549C291.218 189.565 286.602 187.837 281.917 186.275C274.979 183.963 270.863 178.256 269.714 172.221ZM263.665 219.516C267.087 219.516 270.292 221.202 272.241 224.054L324.214 300.128C326.38 303.284 326.596 307.39 324.82 310.805C323.045 314.219 319.493 316.337 315.638 316.337H170.114C166.129 316.337 162.491 314.046 160.758 310.459C159.026 306.871 159.502 302.592 162.014 299.48L189.733 264.901C191.682 262.437 194.714 261.011 197.833 261.011C200.951 261.011 203.939 262.437 205.932 264.901L217.409 279.208L255.09 224.054C256.995 221.202 260.244 219.516 263.665 219.516ZM195.208 232.179C191.31 236.07 186.022 238.256 180.508 238.256C174.995 238.256 169.707 236.07 165.808 232.179C161.909 228.288 159.719 223.011 159.719 217.508C159.719 212.006 161.909 206.728 165.808 202.837C169.707 198.947 174.995 196.761 180.508 196.761C186.022 196.761 191.31 198.947 195.208 202.837C199.107 206.728 201.298 212.006 201.298 217.508C201.298 223.011 199.107 228.288 195.208 232.179Z" fill="white"/>
<path fill-rule="evenodd" clip-rule="evenodd" d="M316.3 133.902C318.823 122.579 335.29 122.509 337.94 133.804L338.053 134.332L338.294 135.331C339.697 141.188 342.828 146.513 347.298 150.641C351.768 154.768 357.38 157.518 363.434 158.546C375.507 160.613 375.507 177.584 363.434 179.638C357.345 180.673 351.705 183.448 347.222 187.613C342.739 191.778 339.613 197.147 338.237 203.047L337.94 204.379C335.304 215.688 318.823 215.619 316.3 204.282L316.031 203.144C314.707 197.228 311.615 191.832 307.148 187.643C302.681 183.454 297.041 180.663 290.948 179.624C278.903 177.57 278.903 160.613 290.948 158.573C297.024 157.54 302.65 154.763 307.112 150.596C311.575 146.429 314.674 141.058 316.017 135.164L316.201 134.332L316.3 133.902Z" fill="white"/>
<path fill-rule="evenodd" clip-rule="evenodd" d="M250.917 120.57C252.309 114.504 261.394 114.467 262.856 120.518L262.919 120.8L263.051 121.336C263.825 124.474 265.553 127.326 268.019 129.537C270.485 131.749 273.581 133.221 276.922 133.772C283.583 134.88 283.583 143.971 276.922 145.071C273.562 145.626 270.45 147.112 267.977 149.344C265.504 151.575 263.779 154.452 263.02 157.612L262.856 158.326C261.402 164.384 252.309 164.347 250.917 158.274L250.768 157.664C250.038 154.495 248.332 151.604 245.867 149.36C243.403 147.116 240.291 145.62 236.93 145.064C230.284 143.964 230.284 134.88 236.93 133.787C240.282 133.233 243.386 131.746 245.848 129.513C248.31 127.281 250.02 124.404 250.761 121.246L250.862 120.8L250.917 120.57Z" fill="white"/>
<defs>
<linearGradient id="paint0_linear_2600_31351" x1="0" y1="248" x2="496" y2="248" gradientUnits="userSpaceOnUse">
<stop stop-color="#F89A47"/>
<stop offset="0.5" stop-color="#F15F3E"/>
<stop offset="1" stop-color="#EC2073"/>
</linearGradient>
</defs>
</svg>
