<svg width="496" height="496" viewBox="0 0 496 496" fill="none" xmlns="http://www.w3.org/2000/svg">
<rect width="496" height="496" rx="60" fill="#D9D9D9"/>
<rect width="496" height="496" rx="60" fill="url(#paint0_linear_2600_31327)"/>
<rect x="24" y="24" width="448" height="448" rx="48" stroke="white" stroke-width="8"/>
<path d="M173.432 152C164.565 152 156.062 155.575 149.792 161.94C143.522 168.304 140 176.936 140 185.937V278.997L161.036 242.021C164.873 235.276 170.391 229.674 177.036 225.779C183.681 221.884 191.219 219.833 198.892 219.832H325.162V212.042C325.162 203.041 321.639 194.409 315.37 188.045C309.1 181.681 300.596 178.105 291.73 178.105H238.341L219.414 158.881C217.265 156.699 214.713 154.969 211.905 153.788C209.097 152.607 206.087 152 203.048 152H173.432ZM198.892 235.495H332.825C350.642 235.495 361.772 255.074 352.864 270.737L321.633 325.642C319.15 330.008 315.578 333.633 311.277 336.154C306.976 338.674 302.097 340.001 297.13 340H163.197C145.39 340 134.25 320.421 143.158 304.758L174.399 249.853C176.881 245.488 180.451 241.864 184.751 239.344C189.05 236.823 193.927 235.496 198.892 235.495Z" fill="white"/>
<defs>
<linearGradient id="paint0_linear_2600_31327" x1="0" y1="248" x2="496" y2="248" gradientUnits="userSpaceOnUse">
<stop stop-color="#F89A47"/>
<stop offset="0.5" stop-color="#F15F3E"/>
<stop offset="1" stop-color="#EC2073"/>
</linearGradient>
</defs>
</svg>
